<svg xmlns="http://www.w3.org/2000/svg" viewBox="0 0 368.32 103.08"><defs><style>.cls-1{fill:#0075c2}.cls-2{fill:#e60012}.cls-3{fill:#094}</style></defs><g id="レイヤー_2" data-name="レイヤー 2"><g id="レイヤー_1-2" data-name="レイヤー 1"><path class="cls-1" d="M78.46 18.13l.56.06.36.06.29.06a1.27 1.27 0 0 0 .18.06c.1 0 .2 0 .3.06l.36.12a2.1 2.1 0 0 1 .24.06c.08 0 .15.09.23.12s.37.11.54.18a1.63 1.63 0 0 1 .23.11s0 .05.06.06.16.07.24.12 0 .05.07.06a1.15 1.15 0 0 0 .17.06s0 .05.06.06.09 0 .12.06.07.09.12.12.09 0 .12.06.15.17.24.24.08 0 .12.06.11.13.18.18a.45.45 0 0 0 .12.06v.06l.07.07h.06a.6.6 0 0 1 .08.08.67.67 0 0 0 .06.12c.07.08.16.15.23.24s0 .08.07.12.12.11.17.18 0 .08.07.12l.12.06.06.06a.67.67 0 0 1 .12.06l.06.06c.08.05.16.07.24.12s0 0 .06.06l.12.06.06.06.12.06.18.18.12.06c.24.22.45.44.67.67 0 0 0 .09.06.12s.17.16.24.24a1.33 1.33 0 0 1 .06.12l.06.06a1.33 1.33 0 0 1 .06.12s.05 0 .06.06a1.33 1.33 0 0 1 .06.12l.06.06a1.33 1.33 0 0 1 .06.12l.06.06a1.33 1.33 0 0 1 .06.12s.05 0 .06.06a.6.6 0 0 1 .06.11v.18c0 .06.13.24.18.36a1.27 1.27 0 0 1 .06.18 1.79 1.79 0 0 1 .12.24c.09.23.17.47.24.71s.08.32.12.48a1.27 1.27 0 0 1 .06.18l.12.59c0 .16 0 .32.06.48s0 .2.06.3 0 .43.06.65v2.4c0 .17 0 .35-.06.53l-.06.6-.12 1-.06.42c0 .2-.09.4-.12.59s0 .29-.06.42-.09.32-.12.48l-.12.6-.06.24-.06.18-.06.24-.06.3-.06.18c0 .1 0 .19-.06.29s0 .08-.06.12-.07.33-.12.48l-.12.36a1.68 1.68 0 0 1-.06.24c-.09.31-.19.6-.3.89a.52.52 0 0 1-.06.13l-.18.54a2.1 2.1 0 0 1-.06.24 1.33 1.33 0 0 1-.06.12c-.1.29-.19.59-.3.89a.75.75 0 0 1-.06.13 1.15 1.15 0 0 1-.06.17.75.75 0 0 1-.06.13c-.06.17-.11.36-.18.53s-.08.16-.11.24-.08.24-.13.36a1.79 1.79 0 0 1-.12.24v.18l-.13.24v.18l-.07.12c0 .06 0 .12-.05.18s-.09.16-.12.24a1.27 1.27 0 0 0-.06.18.67.67 0 0 0-.06.12 1.27 1.27 0 0 0-.06.18c-.06.12-.13.24-.18.36a1.27 1.27 0 0 0-.06.18c-.08.16-.17.32-.24.48a1 1 0 0 0-.06.18c-.14.28-.29.55-.42.84a1 1 0 0 0-.06.18c-.08.16-.15.31-.24.46s-.05 0-.06.07a1.39 1.39 0 0 0-.06.19 1.55 1.55 0 0 1-.12.22c0 .06-.06.11-.12.13h-4.37a.12.12 0 0 1 0-.08.17.17 0 0 1 0-.1.22.22 0 0 1 .05-.11l.06-.06c.11-.2.21-.4.3-.61a1.27 1.27 0 0 0 .06-.18.6.6 0 0 1 .06-.11l.06-.06c.11-.19.19-.4.3-.59 0 0 .05 0 .06-.07a5.76 5.76 0 0 0 .3-.61 1 1 0 0 0 .06-.18.33.33 0 0 1 .06-.1l.06-.07a3.18 3.18 0 0 0 .18-.37 1 1 0 0 0 .06-.18c.15-.32.33-.63.48-1a1.39 1.39 0 0 0 .06-.09c.08-.16.17-.31.24-.47a1.39 1.39 0 0 0 .06-.19.45.45 0 0 0 .06-.12 1.15 1.15 0 0 0 .06-.17c.06-.13.13-.24.18-.36s0-.12.06-.17 0 0 .06-.07a1 1 0 0 0 .06-.18.67.67 0 0 0 .06-.12c0-.06 0-.13.06-.18s.13-.24.18-.36a1.27 1.27 0 0 0 .06-.18.67.67 0 0 0 .06-.12l.06-.18L82 40a1.27 1.27 0 0 0 .06-.18l.06-.12.06-.18a.67.67 0 0 0 .06-.12l.18-.54.06-.12.06-.18.06-.12c.07-.18.11-.36.18-.54s0-.08.06-.12c.08-.24.15-.48.24-.72 0 0 .05-.08.06-.12a2.1 2.1 0 0 0 .06-.24c.08-.24.17-.48.24-.72l.06-.24c.06-.18.13-.36.18-.54s0-.2.06-.3 0-.08.06-.12a2.1 2.1 0 0 0 .06-.24l.06-.18.18-.72.06-.18c0-.1 0-.21.06-.3l.12-.48.06-.3c0-.16.09-.32.12-.48s0-.33.06-.48c.06-.37.13-.72.18-1.08s.09-.56.12-.84 0-.61.06-.91 0-.72 0-1.08v-1.08c0-.2 0-.41-.06-.61s0-.23-.06-.36 0-.32-.06-.47-.08-.41-.12-.61 0-.17-.06-.24l-.3-.91a.67.67 0 0 1-.06-.12 1.27 1.27 0 0 1-.06-.18c-.12-.24-.23-.5-.37-.73 0-.07-.12-.11-.18-.18v-.06s0-.06-.08-.07 0 0-.07 0l-.17-.05s0-.05-.06-.06l-.23-.11-.24-.06-.18-.06s-.08-.05-.12-.06-.25 0-.37-.06l-.29-.06-.24-.06-.37-.06-.54-.06a2 2 0 0 0-.24 0 1.9 1.9 0 0 0-.25 0 2.85 2.85 0 0 1-.29 0h-.78c-.26 0-.53 0-.79.06l-.84.12-.72.12-.31.06a1.15 1.15 0 0 1-.17.06l-.36.06-.25.06a1.15 1.15 0 0 1-.17.06c-.1 0-.21 0-.3.06s-.24.08-.37.12l-.21.03-.12.06-.23.06-.37.12-.12.06a1 1 0 0 1-.18.06l-.23.06-.18.06c-.08 0-.17 0-.25.06l-.24.12-.18.06a.67.67 0 0 1-.12.06l-.18.06a.45.45 0 0 1-.12.06 1.68 1.68 0 0 0-.24.07l-.07.06a.27.27 0 0 1-.11.05l-.18.06-.12.06-.18.06-.12.06-.18.06-.12.06-.18.06c-.2.09-.39.21-.59.3a1.39 1.39 0 0 1-.19.06c-.36.17-.71.37-1.07.54-.06 0-.14 0-.19.07s0 0-.07.06l-.1.05a1 1 0 0 0-.18.06 1.46 1.46 0 0 0-.25.13l-.06.06-.17.05a.54.54 0 0 0-.13.07l-.06.06a1.09 1.09 0 0 1-.17.05.54.54 0 0 0-.13.07s0 .05-.07.06-.24.11-.35.18 0 .05-.06.06-.25.11-.36.18 0 .05-.06.06l-.6.29s0 .05-.06.07l-.48.23-.06.07c-.08 0-.16.07-.24.12s0 0-.06.06l-.24.11s-.07.1-.12.13-.32.15-.48.23l-.06.07c-.08 0-.16.07-.24.12s0 0-.06.06h-.12a1.42 1.42 0 0 1-.12.13c-.15.09-.32.15-.48.23l-.06.06-.12.06-.06.07-.12.05s0 .05-.06.06a.67.67 0 0 1-.12.06l-.06.07-.24.11-.06.07-.24.11-.06.07-.12.05a.68.68 0 0 1-.12.12.45.45 0 0 1-.12.06l-.06.06c-.06.06-.16.08-.24.12s0 .05-.06.06-.08 0-.12.06a.68.68 0 0 1-.12.12.45.45 0 0 1-.12.06l-.06.06a.45.45 0 0 1-.12.06.68.68 0 0 1-.12.12.45.45 0 0 1-.12.06s0 .05-.06.06a.45.45 0 0 1-.12.06s0 .05-.06.06a.45.45 0 0 1-.12.06s0 .05-.06.06-.16.07-.23.12-.08.09-.13.12a.45.45 0 0 1-.12.06s0 .05-.06.06a.45.45 0 0 1-.12.06v.06s-.12.05-.17.09 0 .05-.07.06a.6.6 0 0 1-.11.06s0 .05-.06.06-.09 0-.12.06-.08.09-.12.12-.09 0-.12.06-.08.09-.12.12a1.33 1.33 0 0 1-.23.2l-.06.06c-.06.06-.09 0-.12.06s-.08.09-.12.12-.09 0-.12.06-.08.09-.12.12-.09 0-.12.06a1.53 1.53 0 0 0-.18.18.45.45 0 0 0-.12.06.34.34 0 0 0-.06.06s-.08 0-.12.06 0 0-.06.06 0 0-.06 0l-.07.07h-.06l-.06.06s-.09 0-.12.06-.07.09-.12.12-.17.07-.24.12-.11.12-.18.18-.09 0-.12.06-.11.12-.18.18-.09 0-.12.06-.11.12-.18.18a1.33 1.33 0 0 0-.12.06l-.06.06a.45.45 0 0 0-.12.06c-.09.07-.15.16-.24.23s-.08 0-.12.07 0 0-.06.06l-.12.06c-.11.09-.19.21-.3.3a1.33 1.33 0 0 0-.12.06s-.07.08-.12.12l-.12.06-.24.24-.12.06-.18.18s-.09 0-.12.06-.23.24-.36.35-.08 0-.12.07-.07.08-.12.12l-.12.06c-.11.09-.19.2-.3.29s-.08 0-.12.07a1.31 1.31 0 0 1-.12.11s-.08 0-.12.07l-.29.29a.75.75 0 0 1-.13.06c-.12.12-.23.25-.35.36a1.33 1.33 0 0 1-.12.06l-.3.3s-.09 0-.12.06c-.21.2-.39.41-.6.6 0 0-.09 0-.12.06s-.27.29-.42.42-.09 0-.12.06-.23.25-.36.36a.45.45 0 0 1-.12.06v.06h-.06c-.01 0-.27.29-.42.42s-.09 0-.12.06c-.23.21-.43.45-.66.66 0 0-.09 0-.12.06-.25.23-.47.49-.72.72a.45.45 0 0 1-.12.06v.1h-.06c-.35.35-2.22 2.23-2.58 2.57h-.06l-.07.07a.33.33 0 0 1 0 .06 1.7 1.7 0 0 1-.19.19l-.12.06-.41.41s0 .09-.06.12c-.26.27-1.29 1.29-1.56 1.55 0 0 0 .09-.06.13-.21.22-.44.43-.65.65V46.57l-.06.06-.06.06-.07.06v.07a5.66 5.66 0 0 1-.6.6c-.07.06-.15 0-.23.06h-5.29a.15.15 0 0 1 0-.09.12.12 0 0 1 0-.1c.16-.19.36-.34.53-.53 0 0 0-.09.06-.12a2.72 2.72 0 0 0 .24-.24s0-.09.06-.12.29-.27.42-.42 0-.08.06-.12c.19-.21.41-.39.6-.59 0 0 0-.09.06-.13.21-.22.45-.43.66-.65 0 0 0-.09.06-.13.26-.27.81-.79 1.08-1.07 0 0 0-.09.06-.12.19-.21.4-.4.6-.6v-.06a.12.12 0 0 1 0-.05h.06l.22-.22a.45.45 0 0 1 .06-.12 1.21 1.21 0 0 1 .19-.2s.09 0 .12-.06a.52.52 0 0 0 .11-.1.45.45 0 0 1 .06-.12.27.27 0 0 1 .07-.08h.07l.07-.07v-.06c.26-.28.69-.68.95-1v-.12h.06v-.06h.06a1.53 1.53 0 0 0 .18-.18h.06l.07-.07v-.06l.2-.2h.06c.06 0 .06-.05.08-.07s0-.05 0-.06a5.66 5.66 0 0 1 .49-.49s.09 0 .12-.07c.27-.24.51-.52.78-.77h.06l.07-.06.06-.06.06-.07v-.06a1.8 1.8 0 0 1 .2-.19.45.45 0 0 1 .12-.06 1.29 1.29 0 0 0 .16-.17s0-.08.06-.12a.27.27 0 0 1 .08-.07s.08 0 .12-.06.19-.21.3-.3 0 0 .06 0l.07-.08v-.06a.27.27 0 0 1 .08-.07s.08 0 .12-.06c.21-.19.39-.41.59-.6 0 0 .09 0 .13-.06.2-.19.39-.4.59-.6h.07l.06-.07.06-.05h.06l.23-.24h.07l.06-.07h.12c.06 0 .15-.17.23-.24s.09 0 .12-.06.28-.29.42-.42.09 0 .12-.06.19-.21.3-.3.09 0 .12-.06.15-.17.24-.24.09 0 .12-.06.27-.29.42-.42.17-.06.24-.12.31-.32.48-.47.08 0 .12-.07l.06-.06a.45.45 0 0 0 .12-.06c.11-.09.19-.2.3-.29s.09 0 .12-.07.15-.17.24-.24l.12-.06.06-.06h.06a.23.23 0 0 0 .07-.07v-.06a.67.67 0 0 0 .12-.06l.06-.06a.67.67 0 0 0 .12-.06s.07-.08.12-.12a.67.67 0 0 0 .12-.06c.09-.07.15-.16.24-.24s.08 0 .12-.06a1.31 1.31 0 0 1 .12-.11s.08 0 .12-.07.15-.16.24-.23a.45.45 0 0 1 .12-.06 1.53 1.53 0 0 1 .18-.18.45.45 0 0 1 .12-.06s0-.05.06-.07l.12-.05a1.53 1.53 0 0 1 .18-.18.45.45 0 0 1 .12-.06s0-.05.06-.07l.12-.05a.68.68 0 0 1 .12-.12s.08 0 .12-.06a2.72 2.72 0 0 1 .24-.24s.08 0 .12-.06.11-.13.18-.18a.45.45 0 0 1 .12-.06c.06-.06.11-.13.17-.18a.75.75 0 0 1 .13-.06s0-.05.06-.06a.6.6 0 0 1 .11-.06l.07-.06a.6.6 0 0 1 .11-.06l.12-.12c.08-.05.17-.07.24-.12s.08-.09.12-.12a1.33 1.33 0 0 1 .09-.08c.05 0 .08-.09.12-.12s.09 0 .12-.06.08-.09.12-.12.09 0 .12-.06l.12-.12c.08 0 .17-.07.24-.12s.08-.09.12-.12.09 0 .12-.06l.06-.06a1.33 1.33 0 0 1 .12-.06l.06-.06c.06-.06.09 0 .12-.06s.07-.09.12-.12.17-.07.24-.12.08-.09.12-.12.09 0 .12-.06.07-.09.12-.12.16-.07.24-.12 0 0 .06-.06a.45.45 0 0 0 .12-.06c.07 0 .11-.13.18-.18s.24-.11.36-.18l.06-.06.12-.06s.07-.09.12-.12.16-.07.24-.12.07-.09.12-.12.16-.07.24-.12 0 0 .06-.06l.36-.18.06-.06a.67.67 0 0 0 .12-.06l.06-.06.12-.06.06-.06s.08 0 .12-.06l.06-.06a.67.67 0 0 0 .12-.06l.06-.06.12-.06.06-.06a.67.67 0 0 0 .12-.06l.06-.06c.06-.06.16-.07.24-.12s0 0 .06-.06.24-.11.36-.18 0 0 .05 0a1.89 1.89 0 0 1 .18-.06s0-.05.07-.07a2.53 2.53 0 0 0 .23-.12l.07-.06a2.53 2.53 0 0 0 .23-.12l.07-.06a.6.6 0 0 0 .11-.06l.07-.06.47-.23.07-.07.47-.23s0-.05.06-.07l.6-.29s0-.05.06-.07l.35-.29a1.39 1.39 0 0 0 .19-.06s0-.05.06-.07l.12-.05s0-.05.06-.06l.17-.06.73-.36s0-.05.06-.06.11 0 .17-.06l.36-.18a1.89 1.89 0 0 0 .18-.04l.49-.24s0-.05.06-.06.11 0 .17-.06a.67.67 0 0 0 .12-.06h.18c.12-.06.23-.13.35-.18a1.39 1.39 0 0 1 .19-.06c.12-.06.23-.13.35-.18l.24-.06.13-.07.53-.17.12-.07h.19l.12-.07.17-.05.12-.07.18-.05.24-.06a.67.67 0 0 1 .12-.06l.24-.06.54-.18.12-.06.47-.12.3-.06c.13 0 .24-.08.36-.12l.24-.06.3-.06.48-.12.3-.06.36-.06c.1 0 .19 0 .29-.06l.42-.06.48-.06.66-.06c.4 0 .84 0 1.2-.06h.16c.21-.07.45-.05.67-.04zM65.09 73.39a.12.12 0 0 1 0 .08.07.07 0 0 1 0 .06h-.06c-.06 0 0 .09-.05.12s-.29.27-.42.42 0 .09-.07.12-.24.23-.35.36 0 .09-.06.12-.29.27-.42.42 0 .09-.06.12c-.17.19-.37.35-.54.54 0 0 0 .09-.06.12s-.29.27-.42.42 0 0 0 .06l-.05.05h-.06a1.15 1.15 0 0 0-.22.22s0 .09-.06.12-.29.27-.42.42a.45.45 0 0 0-.06.12h-.12s0 .09-.06.12c-.27.29-.57.55-.84.84 0 0 0 .09-.06.12-.3.31-2 2-2.28 2.27 0 0 0 .08-.06.13s-.08 0-.11.06c-.26.25-1.48 1.49-1.74 1.74 0 0-.09 0-.12.06A1.52 1.52 0 0 0 56 83s0 .09-.06.12-.08 0-.11.06-.31.32-.48.48-.09 0-.12.06c-.27.25-.63.64-.9.9 0 0-.09 0-.12.06s-.27.28-.42.41-.09 0-.12.07c-.28.26-.55.57-.84.83 0 0-.08 0-.12.06s-.23.25-.36.36-.08 0-.12.07c-.19.16-.35.36-.53.53s-.09 0-.13.06-.15.17-.23.24-.09 0-.13.06-.19.21-.29.3a.75.75 0 0 1-.13.06v.06c0 .06 0 0 0 0h-.06l-.23.23a.75.75 0 0 1-.13.06 1.31 1.31 0 0 1-.11.12s-.09 0-.12.06-.23.25-.36.36-.09 0-.12.06-.19.21-.3.3-.09 0-.12.06-.12.13-.18.18-.09 0-.12.06a.68.68 0 0 0-.12.12s-.09 0-.12.06-.15.17-.24.24-.09 0-.12.06-.11.13-.18.18a.45.45 0 0 0-.12.06c-.07 0-.11.12-.18.18s-.09 0-.12.06-.15.17-.24.24-.09 0-.12.06-.15.17-.24.24-.17.06-.24.12-.15.16-.24.24-.08 0-.12.06-.07.08-.12.12-.08 0-.12.06-.11.12-.18.17-.08 0-.12.07-.07.08-.12.12-.08 0-.12.06-.07.08-.12.12a1.33 1.33 0 0 0-.12.06s-.07.08-.12.12a1.33 1.33 0 0 0-.12.06s-.07.08-.12.12a1.33 1.33 0 0 0-.12.06c-.06 0-.11.12-.18.18a1.33 1.33 0 0 0-.12.06s-.07.08-.12.12a1.33 1.33 0 0 0-.12.06s-.07.08-.12.12a1.33 1.33 0 0 0-.12.06l-.06.06a1.33 1.33 0 0 0-.12.06s-.07.08-.12.12a1.33 1.33 0 0 0-.12.06l-.06.06a1.33 1.33 0 0 0-.12.06 1.31 1.31 0 0 0-.11.12h-.13s0 .05-.06.07a.6.6 0 0 0-.11.06.68.68 0 0 0-.25.39.75.75 0 0 0-.13.06s-.07.08-.12.12l-.23.11-.07.07-.11.05-.06.07h-.12a1.42 1.42 0 0 0-.12.13h-.12l-.07.07-.11.05s-.08.09-.12.12a1.33 1.33 0 0 1-.12.06l-.06.07h-.12c-.05 0-.08.09-.12.12s-.09 0-.12.07 0 0-.06.06l-.36.17-.06.06a1.33 1.33 0 0 1-.12.06s0 .05-.06.06l-.12.07s-.07.08-.12.11-.25.11-.36.18-.07.09-.12.12a1.79 1.79 0 0 1-.24.12l-.06.07h-.12l-.06.06-.24.12-.06.06-.36.18-.06.06a.67.67 0 0 1-.12.06l-.06.06-.24.12s0 .05-.06.06l-.24.12-.06.06c-.08 0-.16.07-.24.12s0 .05-.06.06a.67.67 0 0 1-.12.06l-.06.06a.67.67 0 0 1-.12.06l-.06.06-.48.24-.06.06c-.06.06-.32.15-.48.24s0 0-.06.06c-.19.11-.4.19-.6.3 0 0-.06.09-.11.12a1.54 1.54 0 0 1-.17 0c-.21.1-.42.2-.61.31l-.07.06a1.51 1.51 0 0 1-.22.11 1.27 1.27 0 0 1-.18.06.91.91 0 0 0-.14.07l-.06.06c-.23.13-.46.24-.7.35-.06 0-.12 0-.18.06-.24.11-.48.25-.72.36a1.27 1.27 0 0 1-.18.06l-.12.06a1.27 1.27 0 0 0-.18.06l-.12.06a1.27 1.27 0 0 0-.18.06l-.48.24c-.05 0-.12 0-.18.06s-.23.13-.36.18-.16 0-.23.06-.16.08-.25.12-.48.15-.71.24a.75.75 0 0 0-.13.06l-1.3.65a2.1 2.1 0 0 0-.24.06.45.45 0 0 0-.12.06l-.18.05a2.1 2.1 0 0 1-.24.06c-.12 0-.23.09-.36.12l-.47.13a1.06 1.06 0 0 0-.19.06h-.23c-.14 0-.28 0-.42.06a1.34 1.34 0 0 0-.18.07l-.6.11-.84.12c-.1 0-.19 0-.29.06s-.44.05-.66.06h-2.45c-.14 0-.27 0-.41-.06l-.54-.06a2.25 2.25 0 0 1-.36-.06.85.85 0 0 1-.17-.06l-.31-.06h-.23c-.24-.08-.48-.14-.71-.24s-.56-.27-.83-.42l-.07-.06c-.07-.06-.24-.11-.35-.18s0 0-.06-.06-.09 0-.12-.06l-.07-.06a.6.6 0 0 1-.11-.06l-.06-.06a.45.45 0 0 1-.12-.06.68.68 0 0 1-.12-.12h-.12c-.26-.25-.5-.48-.74-.74 0 0 0-.09-.06-.12a1.53 1.53 0 0 0-.18-.18v-.06l-.07-.08h-.06a.34.34 0 0 1-.06-.06h-.12c-.07-.06-.11-.14-.18-.18s-.24-.11-.36-.18-.07-.09-.12-.13h-.12l-.06-.06s-.09 0-.12-.06c-.27-.26-.71-.7-1-1 0 0 0-.09-.06-.12s-.09-.07-.12-.12a.45.45 0 0 1-.06-.12s-.09-.08-.12-.12a.67.67 0 0 1-.06-.12l-.07-.06-.05-.12-.07-.06c-.08-.16-.15-.32-.23-.47s-.05 0-.06-.07a2.39 2.39 0 0 1-.12-.22c0-.06 0-.13-.05-.18a1.27 1.27 0 0 0-.07-.12c-.08-.24-.15-.48-.23-.72l-.07-.12a1.21 1.21 0 0 1-.05-.18 2 2 0 0 1-.06-.23c-.08-.4-.17-.79-.24-1.2 0-.16 0-.31-.06-.48s-.05-.51-.06-.77 0-.6 0-.9v-.89c0-.52.08-1 .12-1.56 0-.2 0-.4.06-.59s.08-.48.12-.72 0-.32.06-.47.05-.08.06-.13 0-.28.06-.42.08-.32.12-.48 0-.24.06-.36.11-.48.18-.71a1.27 1.27 0 0 1 .06-.18c0-.16.07-.32.12-.48a1.27 1.27 0 0 1 .06-.18c.06-.24.11-.48.18-.72a3 3 0 0 1 .12-.36.6.6 0 0 1 .06-.11c.06-.24.11-.49.18-.73a2.42 2.42 0 0 1 .12-.35.45.45 0 0 1 .06-.12l.18-.55a2.1 2.1 0 0 1 .06-.24 1.09 1.09 0 0 1 .05-.17c0-.08.09-.16.12-.24s.08-.24.12-.36l.13-.24a2.1 2.1 0 0 1 .06-.24s0-.08.05-.12a1.27 1.27 0 0 0 .06-.18.67.67 0 0 0 .06-.12 1.27 1.27 0 0 0 .06-.18.67.67 0 0 0 .06-.12 1.27 1.27 0 0 0 .06-.18c0-.08.09-.16.12-.24a1.27 1.27 0 0 0 .06-.18c0-.08.09-.16.12-.24a1.27 1.27 0 0 0 .06-.18.67.67 0 0 0 .06-.12 1.27 1.27 0 0 0 .06-.18.67.67 0 0 0 .06-.12 1.27 1.27 0 0 0 .06-.18c.08-.16.17-.32.24-.48a1 1 0 0 0 .06-.18 1.79 1.79 0 0 0 .12-.39 1 1 0 0 0 .06-.18.67.67 0 0 0 .06-.12 1.27 1.27 0 0 0 .06-.18c.18-.36.37-.71.54-1.07 0-.06 0-.13.06-.19.25-.52.6-1.21.77-1.54 0 0 .05 0 .08-.08s4.08 0 4.42 0 0 0 0 .06v.06c0 .06-.12.23-.18.35a.84.84 0 0 1 0 .17s-.05 0-.06.06c-.13.24-.23.48-.36.72l-.06.06c-.07.12-.13.25-.19.37a.84.84 0 0 1-.05.17l-.06.06c-.06.06-.09.17-.13.25a.84.84 0 0 1-.05.17s-.05 0-.06.06c-.17.32-.33.65-.48 1 0 .06 0 .12-.07.18-.17.36-.36.71-.53 1.08 0 .06 0 .12-.07.18a1.2 1.2 0 0 1-.11.23l-.06.06a.31.31 0 0 0-.06.13 1.27 1.27 0 0 0-.06.18 1.79 1.79 0 0 0-.12.24c-.05.12-.07.24-.12.36s-.13.23-.18.36a1 1 0 0 0-.06.18c-.06.12-.13.23-.18.36a1 1 0 0 0-.06.18 1.79 1.79 0 0 0-.12.24 1 1 0 0 0-.06.18.45.45 0 0 0-.06.12c-.05.11-.08.24-.12.35a.75.75 0 0 0-.06.13 1 1 0 0 0-.06.18 2.53 2.53 0 0 0-.12.23c-.05.12-.08.24-.12.36a.75.75 0 0 0-.06.13 1 1 0 0 0-.06.18.39.39 0 0 0-.06.11c-.05.12-.08.24-.12.36a.75.75 0 0 0-.06.13 2.17 2.17 0 0 0-.12.36 2 2 0 0 0-.06.23.75.75 0 0 0-.06.13 3.59 3.59 0 0 0-.12.35.52.52 0 0 0-.06.13 1.55 1.55 0 0 0-.06.23 1.33 1.33 0 0 0-.06.12 2.27 2.27 0 0 0-.06.25c-.06.18-.13.35-.18.54a2.1 2.1 0 0 0-.06.24 1 1 0 0 0-.06.18 2.1 2.1 0 0 0-.06.24 1 1 0 0 0-.06.18c0 .1 0 .2-.06.3s-.09.23-.12.35c-.13.48-.25 1-.36 1.45a5.79 5.79 0 0 0-.12.6c0 .12 0 .24-.06.36s0 .19-.06.3a1.4 1.4 0 0 0-.06.24c0 .15 0 .32-.06.48l-.06.42c0 .12 0 .24-.06.36a5 5 0 0 0-.06.54q0 .48-.06 1t0 .9v.9c0 .23 0 .45.06.67s0 .28.06.42 0 .24.06.36 0 .16.06.25 0 .19.06.3l.06.24c0 .06 0 .11.06.18l.06.24.06.18a2.1 2.1 0 0 0 .06.24c.17.37.38.77.55 1.09l.06.07a.6.6 0 0 0 .06.11.61.61 0 0 0 .16.16.42.42 0 0 0 .13.07c.06 0 .13 0 .18.06l.24.12.25.07h.12a.94.94 0 0 0 .24.06q.3.07.6.12l.42.06a2.1 2.1 0 0 0 .24.06c.24 0 .49 0 .73.06s.42 0 .63 0h.65a.49.49 0 0 0 .11 0h.11l.59-.06c.1 0 .2 0 .3-.06s.23 0 .35-.06h.2l.35-.06.24-.06c.12 0 .24 0 .36-.06h.18c.12 0 .24 0 .36-.06l.3-.07a1.05 1.05 0 0 0 .24-.06l.18-.06a2.27 2.27 0 0 0 .25-.06s.07 0 .12-.06.23 0 .35 0l.18-.07a2.27 2.27 0 0 0 .25-.06l.12-.06L25 99a2.65 2.65 0 0 0 .3-.06.52.52 0 0 0 .13-.06l.18-.06a.67.67 0 0 0 .12-.06 1.27 1.27 0 0 0 .18-.06l.12-.06.18-.06c.08 0 .15-.09.23-.12s.16 0 .24-.06a.7.7 0 0 0 .19-.06.6.6 0 0 0 .11-.06 1.68 1.68 0 0 0 .24-.06 1.79 1.79 0 0 0 .24-.12c.12 0 .25-.07.36-.12A.75.75 0 0 0 28 98a1.89 1.89 0 0 0 .18-.06c.28-.13.55-.28.83-.42a1.06 1.06 0 0 0 .19-.06l.06-.06a2 2 0 0 0 .23-.06 6.18 6.18 0 0 0 .73-.36s0-.05.06-.06l.23-.12a1.27 1.27 0 0 0 .18-.06l1.21-.6.06-.06c.06 0 .12 0 .18-.06l.06-.06c.32-.17.64-.31 1-.48 0 0 0-.05.06-.06s.17-.07.24-.12.07-.09.12-.12a.39.39 0 0 1 .11-.06 1.39 1.39 0 0 0 .19-.06s0-.05.06-.06a.67.67 0 0 1 .12-.06l.06-.06.36-.18s0-.05.06-.06l.24-.12.06-.06c.06-.06.16-.07.24-.12s0-.05.06-.06l.24-.12.06-.06c.08 0 .16-.07.24-.12s0-.05.06-.06.16-.08.24-.12l.06-.06s.08 0 .12-.06l.06-.06a.67.67 0 0 0 .12-.06s0-.05.06-.06.16-.07.24-.12l.06-.06a.67.67 0 0 1 .12-.06l.06-.06c.06-.06.16-.07.23-.12s0 0 .07-.06l.12-.06s.07-.09.11-.12a.75.75 0 0 0 .13-.06.34.34 0 0 1 .06-.06 2.53 2.53 0 0 0 .23-.12.68.68 0 0 0 .12-.12.45.45 0 0 0 .12-.06c.05 0 .08-.09.12-.12s.17-.07.24-.12 0 0 .07-.06.16-.07.23-.12a1.53 1.53 0 0 0 .18-.18s.09 0 .12-.06.08-.09.12-.12a.45.45 0 0 0 .12-.06l.06-.06a.45.45 0 0 0 .12-.06.68.68 0 0 0 .12-.12c.08-.05.17-.07.24-.11s0-.05.06-.07a.45.45 0 0 0 .12-.06c.07 0 .12-.12.18-.17l.12-.07.06-.06a.45.45 0 0 0 .12-.06l.06-.06a.67.67 0 0 0 .12-.06l.06-.06.12-.05c.07-.06.11-.13.18-.18s.08 0 .12-.07a.68.68 0 0 0 .12-.12l.12-.06.06-.06h.12l.12-.13a.67.67 0 0 0 .12-.06l.06-.06h.12c.07-.06.11-.13.18-.18s.08 0 .12-.07l.06-.06a.67.67 0 0 0 .12-.06c.07 0 .11-.12.18-.17s.08 0 .12-.07.11-.12.18-.17a.45.45 0 0 1 .12-.06.68.68 0 0 1 .12-.12.45.45 0 0 1 .12-.06.68.68 0 0 1 .12-.12s.08 0 .12-.07h.06a.67.67 0 0 1 .12-.06 1.53 1.53 0 0 1 .18-.18s.08 0 .12-.06a2.72 2.72 0 0 1 .24-.24s.08 0 .12-.06a1.42 1.42 0 0 1 .12-.13h.12c.04 0 .11-.13.18-.18s.08 0 .12-.06.15-.17.24-.24a.45.45 0 0 1 .12-.06.68.68 0 0 1 .12-.12s.08 0 .12-.06.23-.25.35-.36.09 0 .13-.06.15-.17.23-.24.09 0 .12-.06.16-.17.24-.24.09 0 .12-.06.16-.17.24-.24.09 0 .12-.06.31-.33.48-.48.09 0 .12-.06.15-.17.24-.24.09 0 .12-.06.08-.09.12-.12.09 0 .12-.06.31-.32.48-.48.09 0 .12-.06.15-.17.24-.24.09 0 .12-.06.23-.25.36-.36.09 0 .12-.06c.25-.23.47-.49.72-.72 0 0 .09 0 .12-.06.25-.23.47-.49.72-.72 0 0 .09 0 .12-.06.19-.17.35-.36.54-.54 0 0 .09 0 .12-.06.27-.25.51-.52.77-.78h.07a.14.14 0 0 0 .06-.07h.07l-.05-.4a.33.33 0 0 1 0-.06.86.86 0 0 1 .14-.13s.08 0 .12-.06c.27-.27 1.7-1.72 2-2h.07l.07-.08v-.06L57.2 76s0-.09.06-.12a1.26 1.26 0 0 1 .2-.2s.08 0 .12-.06a.32.32 0 0 0 .1-.1s0-.09.06-.12c.17-.19.37-.35.54-.54 0 0 0-.09.06-.12.27-.28.82-.8 1.08-1.08 0 0 0-.09.06-.12a.6.6 0 0 1 .08-.08s0-.07.1-.07h5.13a1.45 1.45 0 0 1 .3 0z"/><path class="cls-2" d="M77.81 49.69v4h-6.07V71h-4.46V53.71h-6v-4zM98.41 56.69a10.93 10.93 0 0 0-21.22 2.74 1.11 1.11 0 0 1 0 .19v.25a11 11 0 1 0 21.28-3.18zm-4 6.85a7.14 7.14 0 1 1-9.92-9.44l.21-.1a7.15 7.15 0 0 1 9.76 9.53zM33.12 52a3.84 3.84 0 0 0-7.26 0c-2.14 6.3-6.37 18.9-6.37 18.9h4.13l1.52-4.48h8.64l1.53 4.48h4s-4.1-12.64-6.19-18.9zm-6.74 10.74s1.78-5.41 2.73-8.09c0-.11.17-.35.39-.35s.32.21.38.39c.87 2.63 2.7 8.05 2.7 8.05zM47 51.21c2.79 4.45 8.39 13.33 8.39 13.33a.22.22 0 0 0 .1 0v-.06-14.75h4.12V68a3.2 3.2 0 0 1-2.14 3 3.43 3.43 0 0 1-4-1.46l-8.22-13.4h-.07c-.07 0 0 0 0 .06v14.71H41V52.82a3.2 3.2 0 0 1 4.61-2.88A3.54 3.54 0 0 1 47 51.21zM6 51.21l8.39 13.33h.1c.02 0 0-.08 0-.06V49.73h4.13V68a3.21 3.21 0 0 1-2.15 3 3.41 3.41 0 0 1-4-1.46l-8.25-13.4h-.06c-.06 0-.06 0-.06.06v14.71H0V52.82a3.2 3.2 0 0 1 1.5-2.72 3.24 3.24 0 0 1 3.11-.16A3.52 3.52 0 0 1 6 51.21z"/><g><path d="M230.86 38.09a3.43 3.43 0 0 1 2.88 1.53 3.47 3.47 0 0 1 .27 3.26l-6.67 14.73a23.39 23.39 0 0 1 7.39 12.58 12.61 12.61 0 0 1-2.22 10.24 10.4 10.4 0 0 1-9.27 4.2 3.13 3.13 0 0 1-2.83-3 3.14 3.14 0 0 1 2.65-3.17 5.51 5.51 0 0 1 .57-.06 4.93 4.93 0 0 0 .85-.1 5.33 5.33 0 0 0 4.22-6 15.93 15.93 0 0 0-5.93-10.3 3.51 3.51 0 0 1-.44-.42 2.76 2.76 0 0 0-.29-.3 4.44 4.44 0 0 1-1.1-5.11l5.23-11.8h-7.94v41.52a3.42 3.42 0 0 1-1 2.41 3.38 3.38 0 0 1-5.77-2.41V41.53a3.52 3.52 0 0 1 3.47-3.44zM261.49 34.79l8.78 8.08a3.41 3.41 0 0 1-2.17 5.91 3.41 3.41 0 0 1-2.45-.89l-6.57-6.09-7.19 6.94a2.25 2.25 0 0 0-.31.37.39.39 0 0 0 0 .09.12.12 0 0 0 0 .1v.06a.33.33 0 0 0 .16 0 2.43 2.43 0 0 0 .38 0h14.55a3.12 3.12 0 0 1 3.14 3.13 3.11 3.11 0 0 1-3.13 3.12h-4.06v4h5.45a3.09 3.09 0 0 1 2.18 5.27 3.11 3.11 0 0 1-2.18.9h-5.45v14.97s3.32-.5 5-.61a3.31 3.31 0 0 1 2.32.79 3.26 3.26 0 0 1 .42 4.51 3.2 3.2 0 0 1-2.12 1.21l-19.6 2.63a3.28 3.28 0 0 1-2.44-.64 3.29 3.29 0 0 1-.62-4.62 3.27 3.27 0 0 1 2.18-1.26l7.59-1V65.84h-7.9a3.16 3.16 0 0 1-2.09-1 3.06 3.06 0 0 1 .1-4.27 3.06 3.06 0 0 1 2.14-.88h7.79v-4H251a3.18 3.18 0 0 1-2.27-1.48 3.11 3.11 0 0 1-.35-2.65 3.57 3.57 0 0 1-3.4-6l11.67-11.31a4.27 4.27 0 0 1 4.84.54zM300.76 83.49a40.7 40.7 0 0 1-6.51-7.49l5.51-4.9a3.08 3.08 0 0 0 .29-4.25 3.06 3.06 0 0 0-4.24-.46 54.741 54.741 0 0 0-4.5 4 34.85 34.85 0 0 1-1.85-6.07h6.69a4.21 4.21 0 0 0 3-1.24 4.16 4.16 0 0 0 1.23-3V40.81a4.08 4.08 0 0 0-4.07-4.09h-19.54a4 4 0 0 0-4 4l-.05 44.87a3.47 3.47 0 0 0 4.15 3.41q4.85-.89 9.61-2.07a3.07 3.07 0 0 0 1.9-1.38 3 3 0 0 0 .38-2.31 3.09 3.09 0 0 0-3.66-2.33l-5.49 1.21V64.24H283a41.25 41.25 0 0 0 13 23.91 3.29 3.29 0 0 0 2.29.85 3.34 3.34 0 0 0 2.26-1 3.3 3.3 0 0 0 1-2.24 3.37 3.37 0 0 0-.79-2.27zM294 42.83v4.88h-14.3v-4.89zm-14.34 15.26v-4.78H294v4.79zM330 39.88l-12.52 11.49a3.66 3.66 0 0 1-5-5.37l12.63-11.49a3.54 3.54 0 0 1 2.6-.91 3.59 3.59 0 0 1 2.49 1.18 3.61 3.61 0 0 1-.23 5.1zM332.42 54.06L327.3 59v26.26a3.82 3.82 0 0 1-7.63 0V67.48a5 5 0 0 0 0-.55v-.09a.16.16 0 0 0 0-.07h-.14a.64.64 0 0 0-.16.11l-.15.14-2.19 2a3.67 3.67 0 0 1-2.6.72 3.62 3.62 0 0 1-2.43-1.31 3.58 3.58 0 0 1-.88-2.54 3.69 3.69 0 0 1 1.1-2.46l15.18-14.6a3.59 3.59 0 0 1 2.59-1 3.62 3.62 0 0 1 3.59 3.7 3.6 3.6 0 0 1-1.16 2.53zM362.68 36.38a3.59 3.59 0 0 1 2.52 1 3.55 3.55 0 0 1 1 2.52 3.58 3.58 0 0 1-1 2.51 3.55 3.55 0 0 1-2.52 1h-23.15a3.55 3.55 0 0 1 0-7.09zM364.94 52.92a3.36 3.36 0 0 1 3.38 3.37 3.36 3.36 0 0 1-3.32 3.38h-5v25.27a3.93 3.93 0 0 1-3.78 3.88 87.07 87.07 0 0 1-8.85-.07 3.54 3.54 0 0 1 .19-7.08h4.64v-22h-15.01a3.38 3.38 0 0 1 0-6.75zM164.63 45.21a3.29 3.29 0 0 0 0-6.57h-20a7.33 7.33 0 0 0-.32-2.74 4 4 0 0 0-2-1.89 4 4 0 0 0-5 1.58 4.06 4.06 0 0 0-.6 3h-20.24a3.28 3.28 0 0 0-2.31 1 3.23 3.23 0 0 0-1 2.31 3.31 3.31 0 0 0 3.27 3.29h20.09v4.48h-18a3.75 3.75 0 0 0-2.69 1.08 3.8 3.8 0 0 0-1.13 2.67v32.24a3.76 3.76 0 0 0 6.42 2.67 3.83 3.83 0 0 0 1.12-2.67V56.27h7.28l2.5 5.46h-4a3 3 0 0 0-3 3 3.12 3.12 0 0 0 .89 2.14 3 3 0 0 0 2.14.91h8.45v3.89h-8.73a3 3 0 0 0-2.13 5.13 3.07 3.07 0 0 0 2.12.93h8.74v6.97a3.9 3.9 0 0 0 6.64 2.79 3.94 3.94 0 0 0 1.18-2.76v-7h8.82a3 3 0 0 0 2.18-5.08 3.09 3.09 0 0 0-2.08-1h-8.94v-3.83h9.08a3 3 0 0 0 2.21-5.07 3.1 3.1 0 0 0-2.07-1h-4.42l2.56-5.46h7.28v26.05h-2.65a3.4 3.4 0 0 0-.16 6.79 56.72 56.72 0 0 0 6.9 0 3.55 3.55 0 0 0 2.42-1.1 3.64 3.64 0 0 0 1-2.45v-32a3.91 3.91 0 0 0-4-4h-17.76v-4.37zm-22.7 16.47h-2.73l-2.7-5.44h8.16zM210.53 37.3a3.29 3.29 0 0 0-1.48-1.89 3.27 3.27 0 0 0-4.36 1c-.62 1-1.19 1.93-1.72 2.94h-8.66v-2a3.49 3.49 0 0 0-5.15-3.3 3.39 3.39 0 0 0-1.83 3v2.29h-5.18a3.16 3.16 0 0 0-2.17.93 3.1 3.1 0 0 0-.11 4.34 3.18 3.18 0 0 0 2.13 1.06h5.33v6.72h-6.79a3.06 3.06 0 0 0-3.06 3.07 3 3 0 0 0 .88 2.16 3.11 3.11 0 0 0 2.16.94h6.93A66.34 66.34 0 0 1 182.3 63q-2 1.38-3.93 2.93a3.1 3.1 0 0 0 3.86 4.85v14a3.89 3.89 0 0 0 1.12 2.83 4 4 0 0 0 2.81 1.18h17.19a4.25 4.25 0 0 0 3-1.25 4.31 4.31 0 0 0 1.24-3V65.69a4 4 0 0 0-1.14-2.86 4 4 0 0 0-2.84-1.24h-9.73l2.91-3H206a3.09 3.09 0 0 0 .16-6.17h-4.09a73.7 73.7 0 0 0 8.25-12.7 3.3 3.3 0 0 0 .21-2.42zm-9.31 46.11h-12.66v-5.34h12.66zm0-16.37v5.22h-12.66V67zm-6.91-15.58v-5.79h4.51a71.88 71.88 0 0 1-4.51 5.79z"/><path d="M271.19 72a23.86 23.86 0 0 1-1.61 4.88 2.94 2.94 0 0 1-1.49 1.48 3 3 0 0 1-3.72-1.23 2.94 2.94 0 0 1-.32-2.07 24.54 24.54 0 0 1 1.63-4.88 3 3 0 0 1 1.5-1.46 2.91 2.91 0 0 1 4 3.28zM252.45 71.15q.83 2.67 1.44 5.39a3.14 3.14 0 0 1-.38 2.32 3.22 3.22 0 0 1-1.89 1.4 3.15 3.15 0 0 1-2.33-.31 3.12 3.12 0 0 1-1.45-1.85q-.76-2.64-1.42-5.29a3.17 3.17 0 0 1 .34-2.41 3.12 3.12 0 0 1 5.69.75z"/></g><g><path class="cls-3" d="M250.54 5.74a.35.35 0 0 0 .44-.16l.78-1.68a.28.28 0 0 0 0-.25.3.3 0 0 0-.17-.18L245.05.39a.32.32 0 0 0-.43.16l-.79 1.68a.31.31 0 0 0 0 .25.3.3 0 0 0 .16.19zM247 8.37a20.45 20.45 0 0 0-3.63 1.75V4.37A.33.33 0 0 0 243 4h-1.86a.32.32 0 0 0-.32.33v9.39a.32.32 0 0 0 .32.33H243a.33.33 0 0 0 .33-.33v-.68a20.94 20.94 0 0 1 4.45-2.33c2.14-.74 4-.36 4.7 1a2.88 2.88 0 0 1-.3 2.61c-1 1.69-3 2.76-5.56 2.94a.3.3 0 0 0-.23.11.32.32 0 0 0-.07.23l.12 1.86a.32.32 0 0 0 .35.3c3.43-.23 6.18-1.76 7.57-4.2a5.31 5.31 0 0 0 .36-5c-1.24-2.47-4.36-3.36-7.72-2.19zM225 6.26V4.4a.33.33 0 0 0-.33-.33h-4.16l.59-3V1a.32.32 0 0 0-.26-.32L219 .35a.37.37 0 0 0-.25.05.34.34 0 0 0-.14.21l-.68 3.46h-3.42a.33.33 0 0 0-.33.33v1.86a.33.33 0 0 0 .33.33h2.92l-1.78 9v.06a.31.31 0 0 0 .26.32l1.82.36a.3.3 0 0 0 .24-.05.29.29 0 0 0 .14-.2L220 6.59h4.66a.33.33 0 0 0 .34-.33z"/><path class="cls-3" d="M232.35 11.57h-3.48v-5h3a.33.33 0 0 0 .33-.33V4.4a.33.33 0 0 0-.33-.33h-5.21a.32.32 0 0 0-.32.33v7.17h-1.62a4.13 4.13 0 1 0 4.13 4.17v-1.65h3.48a.33.33 0 0 0 .33-.33V11.9a.33.33 0 0 0-.31-.33zm-6 4.15a1.61 1.61 0 0 1-3.22 0 1.59 1.59 0 0 1 .47-1.15 1.56 1.56 0 0 1 1.13-.47h1.62z"/><g><rect class="cls-2" x="163.33" y="4.07" width="7.89" height="2.53" rx=".33"/><path class="cls-2" d="M178.52 9l-1.72-.73a.3.3 0 0 0-.26 0 .32.32 0 0 0-.18.18A13.51 13.51 0 0 1 163.48 17a.32.32 0 0 0-.35.3l-.13 1.88a.33.33 0 0 0 .31.35 16.28 16.28 0 0 0 15.38-10 .34.34 0 0 0-.17-.53zM197.09 8.6h-8.29V2.23a.33.33 0 0 0-.33-.33h-1.87a.33.33 0 0 0-.33.33v17a.33.33 0 0 0 .33.33h1.87a.33.33 0 0 0 .33-.33v-8.1h8.29a.34.34 0 0 0 .34-.34V8.93a.33.33 0 0 0-.34-.33zM156.82 7.35h-6.68V2.23a.34.34 0 0 0-.34-.33h-1.86a.34.34 0 0 0-.34.33v5.12h-8.55a.32.32 0 0 0-.33.33v1.87a.33.33 0 0 0 .33.33h8.46a10.53 10.53 0 0 1-5.87 8.26.33.33 0 0 0-.17.3.28.28 0 0 0 0 .15l.87 1.65a.34.34 0 0 0 .45.14 13 13 0 0 0 7.23-10.5h6.76a.33.33 0 0 0 .33-.33V7.68a.33.33 0 0 0-.29-.33zM206.26 9.62a1.62 1.62 0 1 0 0 3.24 1.62 1.62 0 1 0 0-3.24z"/></g><g><path class="cls-1" d="M287.09 0h-1.38a.32.32 0 0 0-.32.33V2a.32.32 0 0 0 .32.32h1.38a.32.32 0 0 0 .33-.32V.33a.33.33 0 0 0-.33-.33zM289.15 0h1.38a.33.33 0 0 1 .33.33V2a.32.32 0 0 1-.32.32h-1.38a.33.33 0 0 1-.33-.33V.33a.33.33 0 0 1 .32-.33z"/><path class="cls-1" d="M289.53 4.07h-6.1V1a.33.33 0 0 0-.33-.33h-1.85a.33.33 0 0 0-.33.33v3h-8.42a.33.33 0 0 0-.33.33v1.92a.33.33 0 0 0 .33.33h8.42v.93a4.3 4.3 0 0 0-1.06-.15 4.46 4.46 0 0 0-.93 8.83l-2.11 2.88a.31.31 0 0 0-.07.2.31.31 0 0 0 .14.26l1.49 1.1a.32.32 0 0 0 .25.06.3.3 0 0 0 .21-.13l3.89-5.31a4.42 4.42 0 0 0 .7-6.08V6.58h6.1a.33.33 0 0 0 .33-.33V4.4a.33.33 0 0 0-.33-.33zm-9.67 9.73a2 2 0 1 1 2-2 2 2 0 0 1-2 2zM304.27 6.54h-7.55a.33.33 0 0 0-.33.33v1.85a.33.33 0 0 0 .33.33h7.55a3 3 0 0 1 3.23 2.88c0 1.62-1.35 4.76-6.42 5.09a.31.31 0 0 0-.22.11.36.36 0 0 0-.09.24l.12 1.85a.34.34 0 0 0 .35.31c6.43-.42 8.77-4.77 8.77-7.6a5.52 5.52 0 0 0-5.74-5.39zM330.54 17h-8.34a2.2 2.2 0 0 1-2.42-2.32 3.67 3.67 0 0 1 2.69-3.89c1.71-.55 7.35-2.13 7.4-2.15a.28.28 0 0 0 .2-.15.36.36 0 0 0 0-.25l-.5-1.79a.32.32 0 0 0-.17-.19.42.42 0 0 0-.27 0l-5.32 1.53V1.64a.33.33 0 0 0-.32-.33h-1.86a.33.33 0 0 0-.33.33v6.93a6.13 6.13 0 0 0-4.07 5.8v.52a4.67 4.67 0 0 0 4.93 4.64h8.34a.33.33 0 0 0 .33-.33v-1.85a.33.33 0 0 0-.29-.35zM264.23 9.62a1.62 1.62 0 1 0 1.63 1.61 1.62 1.62 0 0 0-1.63-1.61z"/><g><path class="cls-1" d="M340.26 14.53h1.86a.33.33 0 0 0 .33-.33V1.66a.33.33 0 0 0-.33-.33h-1.86a.33.33 0 0 0-.33.33V14.2a.33.33 0 0 0 .33.33zM341.19 16.28a1.63 1.63 0 1 0 1.62 1.63 1.62 1.62 0 0 0-1.62-1.63z"/></g></g></g></g></g></svg>